<svg width="50" height="50" viewBox="0 0 50 50" fill="none" xmlns="http://www.w3.org/2000/svg">
<path d="M19.0494 43.2961V36.9068C19.0494 35.2877 20.366 33.9723 21.9967 33.9621H27.9846C29.6227 33.9621 30.9506 35.2805 30.9506 36.9068V43.2775C30.9505 44.6818 32.0917 45.8231 33.5061 45.8333H37.5913C39.4992 45.8382 41.3307 45.0891 42.6816 43.7515C44.0325 42.4138 44.7917 40.5974 44.7917 38.7032V20.5538C44.7916 19.0237 44.1085 17.5723 42.9263 16.5906L29.0479 5.57138C26.6219 3.64399 23.157 3.70626 20.8029 5.71954L7.22294 16.5906C5.98487 17.5434 5.2449 18.9991 5.20833 20.5538V38.6846C5.20833 42.6327 8.43204 45.8333 12.4087 45.8333H16.4006C17.0816 45.8382 17.7364 45.5731 18.2197 45.0967C18.703 44.6204 18.9748 43.9722 18.9748 43.2961H19.0494Z" fill="#200E32"/>
</svg>
