<svg width="50" height="50" viewBox="0 0 50 50" fill="none" xmlns="http://www.w3.org/2000/svg">
<path d="M41.1865 24.2611C39.6646 22.4839 38.9731 20.9439 38.9731 18.3274V17.4378C38.9731 14.0282 38.1883 11.8314 36.4822 9.63456C33.8526 6.22289 29.4258 4.16666 25.0921 4.16666H24.9079C20.6653 4.16666 16.3772 6.12847 13.7021 9.40166C11.9028 11.6425 11.0269 13.9338 11.0269 17.4378V18.3274C11.0269 20.9439 10.3809 22.4839 8.81351 24.2611C7.66022 25.5704 7.29166 27.2531 7.29166 29.0744C7.29166 30.8977 7.89005 32.6245 9.09097 34.0282C10.6584 35.711 12.8718 36.7853 15.1328 36.972C18.4063 37.3455 21.6799 37.486 25.001 37.486C28.3201 37.486 31.5936 37.2511 34.8693 36.972C37.1282 36.7853 39.3416 35.711 40.909 34.0282C42.1079 32.6245 42.7083 30.8977 42.7083 29.0744C42.7083 27.2531 42.3398 25.5704 41.1865 24.2611" fill="#200E32"/>
<path opacity="0.4" d="M29.1848 40.0591C28.1433 39.8367 21.7971 39.8367 20.7556 40.0591C19.8653 40.2647 18.9025 40.7431 18.9025 41.7922C18.9542 42.793 19.5402 43.6764 20.3518 44.2366L20.3498 44.2387C21.3995 45.057 22.6315 45.5773 23.9215 45.7641C24.6089 45.8585 25.3087 45.8543 26.021 45.7641C27.3089 45.5773 28.5408 45.057 29.5906 44.2387L29.5885 44.2366C30.4002 43.6764 30.9861 42.793 31.0379 41.7922C31.0379 40.7431 30.0751 40.2647 29.1848 40.0591" fill="#200E32"/>
</svg>
