<svg width="50" height="50" viewBox="0 0 50 50" fill="none" xmlns="http://www.w3.org/2000/svg">
<path opacity="0.4" d="M25.0417 4.16666C12.9375 4.16666 4.16667 14.0417 4.16667 25C4.16667 28.5 5.1875 32.1042 6.97917 35.3958C7.3125 35.9375 7.35417 36.625 7.125 37.2708L5.72917 41.9375C5.41667 43.0625 6.375 43.8958 7.4375 43.5625L11.6458 42.3125C12.7917 41.9375 13.6875 42.4167 14.7521 43.0625C17.7938 44.8542 21.5833 45.7708 25 45.7708C35.3333 45.7708 45.8333 37.7917 45.8333 24.9375C45.8333 13.8542 36.875 4.16666 25.0417 4.16666" fill="#200E32"/>
<path fill-rule="evenodd" clip-rule="evenodd" d="M24.9594 27.6877C23.4802 27.6669 22.2927 26.4794 22.2927 25.0002C22.2927 23.5419 23.501 22.3335 24.9594 22.3544C26.4385 22.3544 27.626 23.5419 27.626 25.021C27.626 26.4794 26.4385 27.6877 24.9594 27.6877ZM15.3544 27.6877C13.896 27.6877 12.6877 26.4794 12.6877 25.021C12.6877 23.5419 13.8752 22.3544 15.3544 22.3544C16.8335 22.3544 18.021 23.5419 18.021 25.021C18.021 26.4794 16.8335 27.6669 15.3544 27.6877ZM31.8965 25.021C31.8965 26.4794 33.084 27.6877 34.5631 27.6877C36.0423 27.6877 37.2298 26.4794 37.2298 25.021C37.2298 23.5419 36.0423 22.3544 34.5631 22.3544C33.084 22.3544 31.8965 23.5419 31.8965 25.021Z" fill="#200E32"/>
</svg>
